<svg width="37" height="37" viewBox="0 0 37 37" fill="none" xmlns="http://www.w3.org/2000/svg">
<rect width="37" height="37" rx="10" fill="#EEE9F5"/>
<path d="M19 13.0417C17.4077 11.6166 15.3051 10.75 13 10.75C11.9481 10.75 10.9383 10.9305 10 11.2621V25.5121C10.9383 25.1805 11.9481 25 13 25C15.3051 25 17.4077 25.8666 19 27.2917M19 13.0417C20.5923 11.6166 22.6949 10.75 25 10.75C26.0519 10.75 27.0617 10.9305 28 11.2621V25.5121C27.0617 25.1805 26.0519 25 25 25C22.6949 25 20.5923 25.8666 19 27.2917M19 13.0417V27.2917" stroke="#0F172A" stroke-width="1.5" stroke-linecap="round" stroke-linejoin="round"/>
</svg>
