<svg width="37" height="37" viewBox="0 0 37 37" fill="none" xmlns="http://www.w3.org/2000/svg">
<rect width="37" height="37" rx="10" fill="#EEE9F5"/>
<g clip-path="url(#clip0_881_12896)">
<path d="M26.5 21.25V18.625C26.5 16.761 24.989 15.25 23.125 15.25H21.625C21.0037 15.25 20.5 14.7463 20.5 14.125V12.625C20.5 10.761 18.989 9.25 17.125 9.25H15.25M15.25 22H22.75M15.25 25H19M17.5 9.25H12.625C12.0037 9.25 11.5 9.75368 11.5 10.375V27.625C11.5 28.2463 12.0037 28.75 12.625 28.75H25.375C25.9963 28.75 26.5 28.2463 26.5 27.625V18.25C26.5 13.2794 22.4706 9.25 17.5 9.25Z" stroke="#0F172A" stroke-width="1.5" stroke-linecap="round" stroke-linejoin="round"/>
</g>
<defs>
<clipPath id="clip0_881_12896">
<rect width="24" height="24" fill="white" transform="translate(7 7)"/>
</clipPath>
</defs>
</svg>
