<svg width="37" height="37" viewBox="0 0 37 37" fill="none" xmlns="http://www.w3.org/2000/svg">
<rect width="37" height="37" rx="10" fill="#EEE9F5"/>
<path d="M16.8789 14.5188C18.0505 13.4937 19.95 13.4937 21.1215 14.5188C22.2931 15.544 22.2931 17.206 21.1215 18.2312C20.9176 18.4096 20.6917 18.5569 20.4513 18.6733C19.7056 19.0341 19.0002 19.6716 19.0002 20.5V21.25M28 19C28 23.9706 23.9706 28 19 28C14.0294 28 10 23.9706 10 19C10 14.0294 14.0294 10 19 10C23.9706 10 28 14.0294 28 19ZM19 24.25H19.0075V24.2575H19V24.25Z" stroke="#0F172A" stroke-width="1.5" stroke-linecap="round" stroke-linejoin="round"/>
</svg>
