<svg width="116" height="52" viewBox="0 0 116 52" fill="none" xmlns="http://www.w3.org/2000/svg">
<path d="M12.662 12.64C13.7193 12.8653 14.5687 13.394 15.21 14.226C15.8513 15.0407 16.172 15.9767 16.172 17.034C16.172 18.5593 15.6347 19.7727 14.56 20.674C13.5027 21.558 12.0207 22 10.114 22H1.612V3.748H9.828C11.6827 3.748 13.13 4.17267 14.17 5.022C15.2273 5.87133 15.756 7.024 15.756 8.48C15.756 9.55467 15.47 10.4473 14.898 11.158C14.3433 11.8687 13.598 12.3627 12.662 12.64ZM6.058 11.132H8.97C9.698 11.132 10.2527 10.976 10.634 10.664C11.0327 10.3347 11.232 9.858 11.232 9.234C11.232 8.61 11.0327 8.13333 10.634 7.804C10.2527 7.47467 9.698 7.31 8.97 7.31H6.058V11.132ZM9.334 18.412C10.0793 18.412 10.6513 18.2473 11.05 17.918C11.466 17.5713 11.674 17.0773 11.674 16.436C11.674 15.7947 11.4573 15.292 11.024 14.928C10.608 14.564 10.0273 14.382 9.282 14.382H6.058V18.412H9.334ZM23.1967 3.748V22H18.7507V3.748H23.1967ZM33.0226 22.182C31.688 22.182 30.492 21.9653 29.4346 21.532C28.3773 21.0987 27.528 20.4573 26.8866 19.608C26.2626 18.7587 25.9333 17.736 25.8986 16.54H30.6306C30.7 17.216 30.934 17.736 31.3326 18.1C31.7313 18.4467 32.2513 18.62 32.8926 18.62C33.5513 18.62 34.0713 18.4727 34.4526 18.178C34.834 17.866 35.0246 17.4413 35.0246 16.904C35.0246 16.4533 34.8686 16.0807 34.5566 15.786C34.262 15.4913 33.8893 15.2487 33.4386 15.058C33.0053 14.8673 32.3813 14.6507 31.5666 14.408C30.388 14.044 29.426 13.68 28.6806 13.316C27.9353 12.952 27.294 12.4147 26.7566 11.704C26.2193 10.9933 25.9506 10.066 25.9506 8.922C25.9506 7.22333 26.566 5.89733 27.7966 4.944C29.0273 3.97333 30.6306 3.488 32.6066 3.488C34.6173 3.488 36.238 3.97333 37.4686 4.944C38.6993 5.89733 39.358 7.232 39.4446 8.948H34.6346C34.6 8.35867 34.3833 7.89933 33.9846 7.57C33.586 7.22333 33.0746 7.05 32.4506 7.05C31.9133 7.05 31.48 7.19733 31.1506 7.492C30.8213 7.76933 30.6566 8.17667 30.6566 8.714C30.6566 9.30333 30.934 9.76267 31.4886 10.092C32.0433 10.4213 32.91 10.7767 34.0886 11.158C35.2673 11.5567 36.2206 11.938 36.9486 12.302C37.694 12.666 38.3353 13.1947 38.8726 13.888C39.41 14.5813 39.6786 15.474 39.6786 16.566C39.6786 17.606 39.41 18.5507 38.8726 19.4C38.3526 20.2493 37.59 20.9253 36.5846 21.428C35.5793 21.9307 34.392 22.182 33.0226 22.182ZM51.0467 22.182C49.3307 22.182 47.7534 21.7833 46.3147 20.986C44.8934 20.1887 43.7581 19.0793 42.9087 17.658C42.0767 16.2193 41.6607 14.6073 41.6607 12.822C41.6607 11.0367 42.0767 9.43333 42.9087 8.012C43.7581 6.59067 44.8934 5.48133 46.3147 4.684C47.7534 3.88667 49.3307 3.488 51.0467 3.488C52.7627 3.488 54.3314 3.88667 55.7527 4.684C57.1914 5.48133 58.3181 6.59067 59.1327 8.012C59.9647 9.43333 60.3807 11.0367 60.3807 12.822C60.3807 14.6073 59.9647 16.2193 59.1327 17.658C58.3007 19.0793 57.1741 20.1887 55.7527 20.986C54.3314 21.7833 52.7627 22.182 51.0467 22.182ZM51.0467 18.126C52.5027 18.126 53.6641 17.6407 54.5307 16.67C55.4147 15.6993 55.8567 14.4167 55.8567 12.822C55.8567 11.21 55.4147 9.92733 54.5307 8.974C53.6641 8.00333 52.5027 7.518 51.0467 7.518C49.5734 7.518 48.3947 7.99467 47.5107 8.948C46.6441 9.90133 46.2107 11.1927 46.2107 12.822C46.2107 14.434 46.6441 15.7253 47.5107 16.696C48.3947 17.6493 49.5734 18.126 51.0467 18.126ZM79.1822 22H74.7362L67.3002 10.742V22H62.8542V3.748H67.3002L74.7362 15.058V3.748H79.1822V22ZM24.778 29.878L19.526 48H16.874L12.662 33.414L8.294 48L5.668 48.026L0.598 29.878H3.12L7.072 45.244L11.44 29.878H14.092L18.252 45.192L22.23 29.878H24.778ZM29.7332 29.878V48H27.3672V29.878H29.7332ZM43.3077 48L38.9917 40.59H36.1317V48H33.7657V29.878H39.6157C40.985 29.878 42.1377 30.112 43.0737 30.58C44.027 31.048 44.7377 31.6807 45.2057 32.478C45.6737 33.2753 45.9077 34.1853 45.9077 35.208C45.9077 36.456 45.5437 37.5567 44.8157 38.51C44.105 39.4633 43.0303 40.096 41.5917 40.408L46.1417 48H43.3077ZM36.1317 38.692H39.6157C40.8983 38.692 41.8603 38.38 42.5017 37.756C43.143 37.1147 43.4637 36.2653 43.4637 35.208C43.4637 34.1333 43.143 33.3013 42.5017 32.712C41.8777 32.1227 40.9157 31.828 39.6157 31.828H36.1317V38.692ZM51.95 31.802V37.86H58.554V39.81H51.95V46.05H59.334V48H49.584V29.852H59.334V31.802H51.95ZM65.2801 46.076H71.6241V48H62.9141V29.878H65.2801V46.076ZM76.5028 31.802V37.86H83.1068V39.81H76.5028V46.05H83.8868V48H74.1368V29.852H83.8868V31.802H76.5028ZM93.2128 48.182C92.0168 48.182 90.9422 47.974 89.9888 47.558C89.0528 47.1247 88.3162 46.5353 87.7788 45.79C87.2415 45.0273 86.9642 44.152 86.9468 43.164H89.4688C89.5555 44.0133 89.9022 44.7327 90.5088 45.322C91.1328 45.894 92.0342 46.18 93.2128 46.18C94.3395 46.18 95.2235 45.9027 95.8648 45.348C96.5235 44.776 96.8528 44.048 96.8528 43.164C96.8528 42.4707 96.6622 41.9073 96.2808 41.474C95.8995 41.0407 95.4228 40.7113 94.8508 40.486C94.2788 40.2607 93.5075 40.018 92.5368 39.758C91.3408 39.446 90.3788 39.134 89.6508 38.822C88.9402 38.51 88.3248 38.0247 87.8048 37.366C87.3022 36.69 87.0508 35.7887 87.0508 34.662C87.0508 33.674 87.3022 32.7987 87.8048 32.036C88.3075 31.2733 89.0095 30.684 89.9108 30.268C90.8295 29.852 91.8782 29.644 93.0568 29.644C94.7555 29.644 96.1422 30.0687 97.2168 30.918C98.3088 31.7673 98.9242 32.894 99.0628 34.298H96.4628C96.3762 33.6047 96.0122 32.998 95.3708 32.478C94.7295 31.9407 93.8802 31.672 92.8228 31.672C91.8348 31.672 91.0288 31.932 90.4048 32.452C89.7808 32.9547 89.4688 33.6653 89.4688 34.584C89.4688 35.2427 89.6508 35.78 90.0148 36.196C90.3962 36.612 90.8555 36.9327 91.3928 37.158C91.9475 37.366 92.7188 37.6087 93.7068 37.886C94.9028 38.2153 95.8648 38.5447 96.5928 38.874C97.3208 39.186 97.9448 39.68 98.4648 40.356C98.9848 41.0147 99.2448 41.916 99.2448 43.06C99.2448 43.944 99.0108 44.776 98.5428 45.556C98.0748 46.336 97.3815 46.9687 96.4628 47.454C95.5442 47.9393 94.4608 48.182 93.2128 48.182ZM108.473 48.182C107.277 48.182 106.202 47.974 105.249 47.558C104.313 47.1247 103.576 46.5353 103.039 45.79C102.501 45.0273 102.224 44.152 102.207 43.164H104.729C104.815 44.0133 105.162 44.7327 105.769 45.322C106.393 45.894 107.294 46.18 108.473 46.18C109.599 46.18 110.483 45.9027 111.125 45.348C111.783 44.776 112.113 44.048 112.113 43.164C112.113 42.4707 111.922 41.9073 111.541 41.474C111.159 41.0407 110.683 40.7113 110.111 40.486C109.539 40.2607 108.767 40.018 107.797 39.758C106.601 39.446 105.639 39.134 104.911 38.822C104.2 38.51 103.585 38.0247 103.065 37.366C102.562 36.69 102.311 35.7887 102.311 34.662C102.311 33.674 102.562 32.7987 103.065 32.036C103.567 31.2733 104.269 30.684 105.171 30.268C106.089 29.852 107.138 29.644 108.317 29.644C110.015 29.644 111.402 30.0687 112.477 30.918C113.569 31.7673 114.184 32.894 114.323 34.298H111.723C111.636 33.6047 111.272 32.998 110.631 32.478C109.989 31.9407 109.14 31.672 108.083 31.672C107.095 31.672 106.289 31.932 105.665 32.452C105.041 32.9547 104.729 33.6653 104.729 34.584C104.729 35.2427 104.911 35.78 105.275 36.196C105.656 36.612 106.115 36.9327 106.653 37.158C107.207 37.366 107.979 37.6087 108.967 37.886C110.163 38.2153 111.125 38.5447 111.853 38.874C112.581 39.186 113.205 39.68 113.725 40.356C114.245 41.0147 114.505 41.916 114.505 43.06C114.505 43.944 114.271 44.776 113.803 45.556C113.335 46.336 112.641 46.9687 111.723 47.454C110.804 47.9393 109.721 48.182 108.473 48.182Z" fill="#2B3674"/>
</svg>
